Coordinates
version=1
nRows=7
nColumns=46
inDegrees=yes

Units are S.I. units (second, meters, Newtons, ...)
Angles are in degrees.

endheader
time	pelvis_tilt	pelvis_list	pelvis_rotation	pelvis_tx	pelvis_ty	pelvis_tz	bb_angle	bb_tx	bb_ty	bb_tz	hip_flexion_r	hip_adduction_r	hip_rotation_r	knee_angle_r	knee_angle_r_beta	ankle_angle_r	subtalar_angle_r	mtp_angle_r	crank_angle_r	hip_flexion_l	hip_adduction_l	hip_rotation_l	knee_angle_l	knee_angle_l_beta	ankle_angle_l	subtalar_angle_l	mtp_angle_l	crank_angle_l	lumbar_extension	lumbar_bending	lumbar_rotation	arm_flex_r	arm_add_r	arm_rot_r	elbow_flex_r	pro_sup_r	wrist_flex_r	wrist_dev_r	arm_flex_l	arm_add_l	arm_rot_l	elbow_flex_l	pro_sup_l	wrist_flex_l	wrist_dev_l
      7.50500000	     -6.72787467	      2.45421789	      1.08969117	      0.11200887	      1.12717914	     -0.26723734	      0.00000000	      0.50000000	      0.00000000	      0.25000000	     58.98081834	     -8.90129989	      2.07652988	     98.97102925	      1.72737032	      5.58813455	     -7.43408768	      0.00000000	      0.00000000	     63.56589960	     -5.59210960	     -3.91255241	     64.37537852	      1.12356231	    -11.39850995	     -4.56217610	      0.00000000	      0.00000000	    -56.02110046	      2.10446777	     -3.70964755	     87.90228909	     -6.59188237	     61.37680325	     23.68418006	     38.24532866	      0.00000000	      0.00000000	     88.01064036	    -14.66595574	     66.61521585	     22.42502736	     43.38382431	      0.00000000	      0.00000000
      7.51000000	     -6.47653031	      2.51988426	      0.76357576	      0.11261750	      1.12773937	     -0.26711921	      0.00000000	      0.50000000	      0.00000000	      0.25000000	     59.61833290	     -8.64193127	      2.58086559	    100.43448057	      1.75291237	      7.01418094	     -6.80684083	      0.00000000	      0.00000000	     61.83478280	     -5.85076036	     -4.52378702	     62.56779095	      1.09201396	    -12.06146752	     -4.41047797	      0.00000000	      0.00000000	    -56.32892890	      1.86209609	     -3.53790637	     87.93380839	     -6.74229214	     61.32330815	     23.86487202	     38.24972309	      0.00000000	      0.00000000	     88.04888496	    -14.60248884	     66.87357150	     22.45982208	     43.39473067	      0.00000000	      0.00000000
      7.51500000	     -6.41226897	      2.33452375	      0.58796173	      0.11313318	      1.12788057	     -0.26755810	      0.00000000	      0.50000000	      0.00000000	      0.25000000	     60.41632314	     -8.37413622	      2.78043892	    101.85894171	      1.77777391	      8.28616116	     -6.41691324	      0.00000000	      0.00000000	     60.44577347	     -6.02718390	     -4.72349553	     60.89626429	      1.06284031	    -12.75280309	     -4.39601732	      0.00000000	      0.00000000	    -56.39757738	      2.02808551	     -3.28703662	     87.95326067	     -6.79464850	     61.31207551	     24.19810908	     38.26555128	      0.00000000	      0.00000000	     88.02828109	    -14.68314180	     67.31743469	     22.34670538	     43.38882129	      0.00000000	      0.00000000
      7.52000000	     -6.50626512	      1.87898573	      0.42573115	      0.11349389	      1.12762856	     -0.26785209	      0.00000000	      0.50000000	      0.00000000	      0.25000000	     61.37337329	     -7.86800708	      2.69935891	    103.20854602	      1.80132894	      9.28974790	     -6.66234353	      0.00000000	      0.00000000	     59.38403516	     -6.39605250	     -4.67787858	     59.41537603	      1.03699394	    -13.38685956	     -4.12558887	      0.00000000	      0.00000000	    -56.29149337	      2.41143488	     -2.85347764	     87.94235594	     -6.74175581	     61.22404793	     24.32852144	     38.27477365	      0.00000000	      0.00000000	     87.86196724	    -14.82479907	     67.24428581	     22.35415404	     43.37244037	      0.00000000	      0.00000000
      7.52500000	     -6.41650195	      1.72422305	      0.16539091	      0.11390327	      1.12797108	     -0.26786406	      0.00000000	      0.50000000	      0.00000000	      0.25000000	     62.17916603	     -7.50854495	      2.93949376	    104.54891442	      1.82472279	     10.69703867	     -6.18953330	      0.00000000	      0.00000000	     58.00956230	     -6.73473753	     -5.13867232	     57.81013709	      1.00897723	    -14.66760098	     -4.14909894	      0.00000000	      0.00000000	    -56.43746074	      2.39666535	     -2.56140340	     87.95002225	     -6.81414525	     61.16307337	     24.40484169	     38.27101191	      0.00000000	      0.00000000	     87.86099907	    -14.80712520	     67.27450530	     22.42031790	     43.36803600	      0.00000000	      0.00000000
      7.53000000	     -6.28538738	      1.74290833	     -0.01985350	      0.11430722	      1.12853431	     -0.26818209	      0.00000000	      0.50000000	      0.00000000	      0.25000000	     62.94936840	     -7.35482985	      3.32569745	    105.84805375	      1.84739704	     12.26891413	     -5.40859102	      0.00000000	      0.00000000	     56.49643697	     -6.78196294	     -5.60611262	     56.11983546	      0.97947590	    -15.70675044	     -4.48949425	      0.00000000	      0.00000000	    -56.61897274	      2.37704863	     -2.45124515	     88.02197885	     -6.87373232	     61.17485683	     24.50560912	     38.26571820	      0.00000000	      0.00000000	     87.85974976	    -14.79528383	     67.49075845	     22.34215902	     43.35715888	      0.00000000	      0.00000000
      7.53500000	     -6.31732944	      1.43491960	     -0.19673379	      0.11463187	      1.12876463	     -0.26829080	      0.00000000	      0.50000000	      0.00000000	      0.25000000	     63.85061184	     -6.92218369	      3.37711887	    107.04765414	      1.86833402	     13.59073720	     -5.21326313	      0.00000000	      0.00000000	     55.33348501	     -7.14991532	     -5.87033799	     54.66777251	      0.95413263	    -16.75360743	     -4.29813094	      0.00000000	      0.00000000	    -56.62577155	      2.58049095	     -2.12907931	     88.05257411	     -6.82785170	     61.20562425	     24.60032427	     38.27012486	      0.00000000	      0.00000000	     87.80423256	    -14.85683272	     67.61141742	     22.27888578	     43.34837516	      0.00000000	      0.00000000
